<svg xmlns="http://www.w3.org/2000/svg" width="180" height="180" viewBox="0 0 135 135" xmlns:v="https://vecta.io/nano"><path d="M0 0h135v135H0z" fill="teal"/><path d="M65.18 11.636a35.027 35.027 0 0 0-4.17 2.085l-5.838 3.336-6.839 4.003-6.672 3.92-6.672 3.92-4.337 2.502-6.672 3.92-5.254 3.336c-1.084.834-1.084.417-1.084 10.508v45.369l.417.667c.834 1.668 1.084 1.835 6.672 5.004l4.587 2.669 2.502 1.501 5.838 3.336 26.687 15.178c1.251.667 2.168.834 3.336.584a51.707 51.707 0 0 0 8.507-4.504l3.002-1.668 4.67-2.669 20.599-11.843 5.338-3.086c4.003-2.335 5.004-3.086 5.838-4.67l.5-.834V71.182l-.5-.417c-.334-.334-.584-.417-.834-.334-.5.167-3.753 1.918-6.005 3.336-1.668 1.001-2.085 1.334-2.168 1.668a104.248 104.248 0 0 0-.25 6.755c-.167 7.089-.167 7.005-1.168 8.34-.834 1.001-1.668 1.668-11.342 7.089l-3.336 1.918-16.68 9.507c-5.838 3.169-5.838 3.336-6.922 3.336-.834 0-1.084-.083-2.502-.834-6.005-3.086-30.691-17.514-34.527-20.016-1.918-1.334-2.085-1.668-2.335-4.754V48.414c.167-2.502.417-3.169 1.334-4.003a214.334 214.334 0 0 1 13.844-8.423l3.336-1.835 18.264-10.842c.834-.417 1.251-.5 2.002-.584.834-.083 1.084 0 2.335.584l10.258 5.671 3.336 1.918 2.669 1.501 2.752 1.668 2.919 1.668 3.753 2.085c9.758 5.671 10.258 6.005 11.175 7.839l.417.834v7.756l.083 9.341c.083 1.418.167 1.668.5 1.918.25.167.5.334.667.334a56.711 56.711 0 0 0 6.338-3.419c1.668-1.084 1.918-1.168 2.085-1.668.167-.834.167-18.681 0-19.849-.334-1.668-1.251-2.669-4.17-4.42L99.37 29.316l-8.673-5.004-4.17-2.502-4.587-2.502-5.087-2.836-5.838-3.336-3.002-1.668h-1.168c-.834 0-1.334 0-1.668.25zm-.858 91.721c-2.447-1.132-5.845-3.013-15.187-8.408-11.24-6.491-11.631-6.776-11.456-8.327.062-.549.259-1.014.553-1.302.403-.396 18.748-11.02 24.5-14.19 3.452-1.902 4.382-2.105 6.259-1.365 1.068.421 8.032 4.273 15.766 8.721 2.567 1.476 4.754 2.684 4.86 2.684s.247-.326.313-.726c.164-.994.135-24.147-.032-25.067l-.134-.739-8.803-5.118-10.544-6c-1.735-.879-1.747-.881-3.482-.817l-1.741.064-4.45 2.496c-6.369 3.572-12.552 7.171-14.112 8.214-1.526 1.021-1.993 1.572-2.245 2.654-.097.417-.236 4.298-.309 8.623l-.131 7.864-3.521 1.961c-4.112 2.291-4.611 2.508-5.08 2.214-.497-.312-.632-4.247-.575-16.701l.048-10.534 6.675-4.035c6.141-3.712 18.462-10.837 22.482-13 1.197-.644 1.993-.938 2.749-1.016l1.064-.11 8.665 4.794c8.927 4.938 17.387 9.818 20.951 12.084l2.031 1.292v18.297c0 17.378-.018 18.316-.35 18.683-.53.586-4.427 2.958-6.882 4.189l-2.18 1.093-3.667-1.947a344.71 344.71 0 0 1-8.723-4.87l-6.981-3.905c-1.749-.893-2.042-.982-3.21-.978-1.237.004-1.422.074-4.961 1.866-5.586 2.829-7.24 4.108-6.738 5.209.227.497 6.436 4.408 11.415 7.189 7.325 4.092 8.332 4.764 8.087 5.395-.159.409-2.229 1.944-4.058 3.01-1.409.821-3.44 1.589-4.202 1.589-.243 0-1.443-.463-2.666-1.029z" fill="#f2f2f2"/></svg>